<?xml version="1.0"?><svg viewBox="0 0 100 100" xmlns="http://www.w3.org/2000/svg"><defs><style>
      .a {
        fill: #f0f2ff;
      }

      .b, .d {
        fill: none;
        stroke: #4550e5;
        stroke-linecap: round;
        stroke-linejoin: round;
      }

      .b {
        stroke-width: 1.5px;
        stroke-dasharray: 2 4;
      }

      .c {
        fill: #d6daff;
      }

      .e {
        fill: #fff;
      }
    </style></defs><title/><g><circle class="a" cx="45.463" cy="50" r="40"/><g><path class="b" d="M43.922,59.706c-2.582,9.925-5.948,17.238-12.448,17.238-5.777,0-8.806-6.289-4.951-9.9C31.8,62.09,42.2,68.692,40.552,78.6S23.222,82.721,19.1,88.5"/><g><path class="c" d="M22.343,33.3c-6.394,1.643-4.312,10.53,1.76,9.973,4.981-.457,6.6-6.306,4.262-11.726-3.064-7.1-9.307-11.035-17.227-12.209-5.6-.829-6.922,7.392-1.5,9.005-3.9,1.2-4.429,6.952,1.32,7.48-2.493.44-3.021,6.189,1.643,6.394S19,40.576,19,40.576"/><path class="d" d="M22.343,33.3c-6.394,1.643-4.312,10.53,1.76,9.973,4.981-.457,6.6-6.306,4.262-11.726-3.064-7.1-9.307-11.035-17.227-12.209-5.6-.829-6.922,7.392-1.5,9.005-3.9,1.2-4.429,6.952,1.32,7.48-2.493.44-3.021,6.189,1.643,6.394S19,40.576,19,40.576"/></g><g><path class="c" d="M75.008,44.017c4.529,4.8-1.979,11.2-6.814,7.491-3.968-3.047-2.212-8.856,2.659-12.19,6.384-4.369,13.762-4.359,21.084-1.121,5.178,2.289,1.905,9.946-3.544,8.412,2.656,3.1.032,8.242-5.111,5.618,1.873,1.7-.751,6.846-4.8,4.529s-4.529-4.8-4.529-4.8"/><path class="d" d="M75.008,44.017c4.529,4.8-1.979,11.2-6.814,7.491-3.968-3.047-2.212-8.856,2.659-12.19,6.384-4.369,13.762-4.359,21.084-1.121,5.178,2.289,1.905,9.946-3.544,8.412,2.656,3.1.032,8.242-5.111,5.618,1.873,1.7-.751,6.846-4.8,4.529s-4.529-4.8-4.529-4.8"/></g><g><rect class="e" height="37.589" rx="2.22" transform="translate(-6.649 79.985) rotate(-76.814)" width="23.837" x="35.202" y="25.392"/><line class="d" x1="27.595" x2="43.871" y1="51.694" y2="42.745"/><line class="d" x1="61.28" x2="50.672" y1="59.586" y2="44.339"/><path class="d" d="M65.871,36.338,33.808,28.826a2.331,2.331,0,0,0-2.182.623h0l14.3,15.533a1.748,1.748,0,0,0,1.913.448l19.711-7.565h0A2.331,2.331,0,0,0,65.871,36.338Z"/><rect class="d" height="37.589" rx="2.22" transform="translate(-6.649 79.985) rotate(-76.814)" width="23.837" x="35.202" y="25.392"/></g></g></g></svg>